<svg width="188" height="42" viewBox="0 0 188 42" fill="none" xmlns="http://www.w3.org/2000/svg">
<g clip-path="url(#clip0_4481_7388)">
<path d="M35.6379 23.0673V29.0069C35.6379 29.0754 35.6366 29.1439 35.6325 29.2123C35.6312 29.2257 35.6312 29.2405 35.6299 29.2539C35.6272 29.2942 35.6245 29.3345 35.6205 29.3761C35.6164 29.4163 35.6124 29.4566 35.607 29.4969C35.603 29.5358 35.5963 29.5747 35.5909 29.6123C35.5815 29.67 35.5721 29.7264 35.5601 29.7841C35.5534 29.8204 35.5453 29.8553 35.5372 29.8915C35.5292 29.9224 35.5211 29.9546 35.5131 29.9868C35.5064 30.0163 35.4983 30.0445 35.4889 30.0741C35.4527 30.2043 35.4084 30.3331 35.3574 30.4593C35.3466 30.4861 35.3359 30.5143 35.3238 30.5412C35.293 30.615 35.2594 30.6875 35.2232 30.7586C35.2057 30.7949 35.1869 30.8298 35.1681 30.8647L35.1668 30.8633L28.4473 27.1237L17.9238 21.266L25.8379 17.623L35.4956 22.9895L35.6379 23.0673Z" fill="url(#paint0_linear_4481_7388)"/>
<path d="M35.5194 11.983L33.471 13.5615L31.6576 16.4125L14.416 6.81521L20.9677 2.21387L24.9274 4.50112H24.9288L32.1851 8.69038L33.6872 9.55749C34.612 10.0917 35.2643 10.9723 35.5194 11.983Z" fill="url(#paint1_linear_4481_7388)"/>
<path d="M24.9275 4.50101L0 18.7815V12.9373C0 11.5426 0.743624 10.254 1.95034 9.55738L15.8685 1.52248C17.0752 0.825839 18.5624 0.825839 19.7705 1.52248L24.9275 4.50101Z" fill="#0265DC"/>
<path d="M35.6376 12.9372V14.9654L3.43758 33.2459L1.95034 32.3868C0.743624 31.6888 0 30.4016 0 29.007V26.9828L32.1852 8.69019L33.6872 9.5573C34.894 10.2539 35.6376 11.5425 35.6376 12.9372Z" fill="#0265DC"/>
<path d="M35.6374 22.9062V29.0069C35.6374 29.0754 35.636 29.1438 35.632 29.2123C35.6307 29.2257 35.6307 29.2405 35.6293 29.2539C35.6266 29.2942 35.624 29.3344 35.6199 29.376C35.6159 29.4163 35.6119 29.4566 35.6065 29.4969C35.6025 29.5358 35.5958 29.5747 35.5904 29.6123C35.581 29.67 35.5716 29.7264 35.5595 29.7841C35.5528 29.8203 35.5448 29.8552 35.5367 29.8915C35.5287 29.9224 35.5206 29.9546 35.5125 29.9868C35.5058 30.0163 35.4978 30.0445 35.4884 30.074C35.4521 30.2042 35.4079 30.3331 35.3568 30.4593C35.3461 30.4861 35.3354 30.5143 35.3233 30.5411C35.2924 30.615 35.2589 30.6875 35.2226 30.7586C35.2052 30.7948 35.1864 30.8297 35.1676 30.8646C35.1461 30.9036 35.1246 30.9425 35.1018 30.9801C35.0803 31.019 35.0562 31.0566 35.0334 31.0942C34.985 31.168 34.9354 31.2418 34.883 31.313C34.8293 31.3854 34.7743 31.4552 34.7179 31.5224C34.6884 31.5573 34.6589 31.5908 34.6293 31.623C34.5998 31.6566 34.5689 31.6888 34.538 31.721C34.4763 31.7854 34.4119 31.8485 34.3448 31.9076C34.3193 31.9318 34.2924 31.9546 34.2656 31.9774C34.2495 31.9908 34.2334 32.0042 34.2172 32.0177C34.185 32.0458 34.1515 32.0727 34.1166 32.0982C34.083 32.125 34.0495 32.1505 34.0132 32.1747C33.9461 32.2244 33.8763 32.2714 33.8052 32.3156C33.7662 32.3398 33.7273 32.364 33.687 32.3868L19.7703 40.4217C18.5622 41.1183 17.075 41.1183 15.8683 40.4217L10.7783 37.4834L28.4468 27.1237L35.4951 22.9895L35.6374 22.9062Z" fill="#0265DC"/>
<path d="M6.99866 6.64331V35.301L3.43758 33.246L1.95034 32.3869C0.743624 31.6889 0 30.4017 0 29.0071V12.9373C0 11.5426 0.743624 10.254 1.95034 9.5574L6.99866 6.64331Z" fill="#0265DC"/>
</g>
<path d="M71.0719 26.528C71.0719 28.2346 70.5386 29.5253 69.4719 30.4C68.4266 31.2746 66.5706 31.712 63.9039 31.712H53.9199V11.456H63.5839C65.3546 11.456 66.7306 11.648 67.7119 12.032C68.7146 12.3946 69.4186 12.9386 69.8239 13.664C70.2293 14.3893 70.4319 15.296 70.4319 16.384C70.4319 17.8773 70.0693 19.04 69.3439 19.872C68.6399 20.6826 67.3066 21.1733 65.3439 21.344V21.44C66.7946 21.5466 67.9359 21.792 68.7679 22.176C69.5999 22.5386 70.1866 23.072 70.5279 23.776C70.8906 24.48 71.0719 25.3973 71.0719 26.528ZM62.1759 15.488H59.0399V19.456H62.1759C63.2213 19.456 63.9786 19.328 64.4479 19.072C64.9173 18.7946 65.1519 18.2613 65.1519 17.472C65.1519 16.704 64.9173 16.1813 64.4479 15.904C63.9786 15.6266 63.2213 15.488 62.1759 15.488ZM62.8159 23.648H59.0399V27.712H62.8159C63.8613 27.712 64.6186 27.5733 65.0879 27.296C65.5573 26.9973 65.7919 26.4533 65.7919 25.664C65.7919 24.8533 65.5573 24.32 65.0879 24.064C64.6186 23.7866 63.8613 23.648 62.8159 23.648Z" fill="white"/>
<path d="M79.0712 31.712H73.9512V11.456H79.0712V31.712Z" fill="white"/>
<path d="M96.0399 11.456H101.16V31.712H96.0719L90.3119 23.136C89.8639 22.4533 89.4906 21.8773 89.1919 21.408C88.8933 20.9386 88.6159 20.4693 88.3599 20C88.1039 19.5306 87.8159 18.976 87.4959 18.336L87.3999 18.464C87.6986 19.488 87.8799 20.448 87.9439 21.344C88.0079 22.2186 88.0399 23.072 88.0399 23.904V31.712H82.9199V11.456H88.0079L93.7679 20.032C94.2159 20.6933 94.5893 21.2693 94.8879 21.76C95.1866 22.2293 95.4639 22.6986 95.7199 23.168C95.9759 23.6373 96.2639 24.192 96.5839 24.832L96.6799 24.704C96.4666 23.808 96.3066 22.944 96.1999 22.112C96.0933 21.2586 96.0399 20.416 96.0399 19.584V11.456Z" fill="white"/>
<path d="M123.574 31.616V31.712H118.134C117.984 31.2 117.803 30.6133 117.59 29.952C117.398 29.2906 117.184 28.5866 116.95 27.84H110.038C109.611 29.3333 109.216 30.624 108.854 31.712H103.414V31.648L109.974 11.456H117.014L123.574 31.616ZM113.43 15.104C113.216 16.192 112.907 17.5146 112.502 19.072C112.096 20.6293 111.67 22.2186 111.222 23.84H115.798C115.328 22.2186 114.891 20.6293 114.486 19.072C114.08 17.5146 113.771 16.192 113.558 15.104H113.43Z" fill="white"/>
<path d="M142.978 26.528C142.978 28.2346 142.445 29.5253 141.378 30.4C140.333 31.2746 138.477 31.712 135.81 31.712H125.826V11.456H135.49C137.261 11.456 138.637 11.648 139.618 12.032C140.621 12.3946 141.325 12.9386 141.73 13.664C142.136 14.3893 142.338 15.296 142.338 16.384C142.338 17.8773 141.976 19.04 141.25 19.872C140.546 20.6826 139.213 21.1733 137.25 21.344V21.44C138.701 21.5466 139.842 21.792 140.674 22.176C141.506 22.5386 142.093 23.072 142.434 23.776C142.797 24.48 142.978 25.3973 142.978 26.528ZM134.082 15.488H130.946V19.456H134.082C135.128 19.456 135.885 19.328 136.354 19.072C136.824 18.7946 137.058 18.2613 137.058 17.472C137.058 16.704 136.824 16.1813 136.354 15.904C135.885 15.6266 135.128 15.488 134.082 15.488ZM134.722 23.648H130.946V27.712H134.722C135.768 27.712 136.525 27.5733 136.994 27.296C137.464 26.9973 137.698 26.4533 137.698 25.664C137.698 24.8533 137.464 24.32 136.994 24.064C136.525 23.7866 135.768 23.648 134.722 23.648Z" fill="white"/>
<path d="M145.217 21.568C145.217 18.9866 145.505 16.9386 146.081 15.424C146.679 13.9093 147.692 12.8213 149.121 12.16C150.572 11.4986 152.588 11.168 155.169 11.168C157.111 11.168 158.721 11.3493 160.001 11.712C161.281 12.0746 162.295 12.6613 163.041 13.472C163.788 14.2826 164.311 15.36 164.609 16.704C164.929 18.0266 165.089 19.648 165.089 21.568C165.089 23.5093 164.929 25.152 164.609 26.496C164.311 27.8186 163.788 28.8853 163.041 29.696C162.295 30.5066 161.281 31.0933 160.001 31.456C158.721 31.8186 157.111 32 155.169 32C153.228 32 151.617 31.8186 150.337 31.456C149.057 31.0933 148.044 30.5066 147.297 29.696C146.551 28.8853 146.017 27.8186 145.697 26.496C145.377 25.152 145.217 23.5093 145.217 21.568ZM155.169 27.52C156.535 27.52 157.559 27.3493 158.241 27.008C158.924 26.6666 159.383 26.0693 159.617 25.216C159.852 24.3413 159.969 23.1253 159.969 21.568C159.969 20.032 159.852 18.8373 159.617 17.984C159.383 17.1306 158.924 16.5333 158.241 16.192C157.559 15.8293 156.535 15.648 155.169 15.648C153.825 15.648 152.801 15.8293 152.097 16.192C151.415 16.5333 150.945 17.1306 150.689 17.984C150.455 18.8373 150.337 20.032 150.337 21.568C150.337 23.1253 150.455 24.3413 150.689 25.216C150.945 26.0693 151.415 26.6666 152.097 27.008C152.801 27.3493 153.825 27.52 155.169 27.52Z" fill="white"/>
<path d="M181.351 21.376L187.271 31.712H180.871L177.191 24.544H177.095L173.415 31.712H167.015L172.935 21.376V21.216L167.399 11.456H173.703L177.095 18.496H177.191L180.583 11.456H186.887L181.351 21.216V21.376Z" fill="white"/>
<defs>
<linearGradient id="paint0_linear_4481_7388" x1="34.5641" y1="27.4432" x2="20.2688" y2="17.6445" gradientUnits="userSpaceOnUse">
<stop stop-color="#0265DC"/>
<stop offset="1" stop-color="#0265DC" stop-opacity="0"/>
</linearGradient>
<linearGradient id="paint1_linear_4481_7388" x1="32.2147" y1="13.8863" x2="19.2617" y2="5.49708" gradientUnits="userSpaceOnUse">
<stop stop-color="#0265DC"/>
<stop offset="1" stop-color="#0265DC" stop-opacity="0"/>
</linearGradient>
<clipPath id="clip0_4481_7388">
<rect width="36" height="40" fill="white" transform="translate(0 1)"/>
</clipPath>
</defs>
</svg>
