<svg width="24" height="24" viewBox="0 0 24 24" fill="none" xmlns="http://www.w3.org/2000/svg">
<path fill-rule="evenodd" clip-rule="evenodd" d="M21.2311 12.0001C21.2311 17.0981 17.0983 21.2308 12.0003 21.2308C6.90229 21.2308 2.76953 17.0981 2.76953 12.0001C2.76953 6.90204 6.90229 2.76929 12.0003 2.76929C17.0983 2.76929 21.2311 6.90204 21.2311 12.0001ZM12.3304 9.58342C11.4326 9.95685 9.63821 10.7298 6.94725 11.9022C6.51028 12.0759 6.28138 12.2459 6.26054 12.4122C6.22532 12.6931 6.57711 12.8037 7.05616 12.9543C7.12132 12.9748 7.18884 12.9961 7.25806 13.0186C7.72936 13.1718 8.36336 13.351 8.69294 13.3581C8.99191 13.3646 9.32559 13.2413 9.69398 12.9883C12.2082 11.2912 13.5061 10.4333 13.5876 10.4148C13.6451 10.4018 13.7247 10.3854 13.7787 10.4334C13.8327 10.4813 13.8274 10.5722 13.8216 10.5965C13.7868 10.7451 12.4059 12.029 11.6912 12.6933C11.4685 12.9004 11.3105 13.0473 11.2782 13.0809C11.2058 13.156 11.132 13.2271 11.0612 13.2955C10.6233 13.7176 10.295 14.0341 11.0793 14.551C11.4563 14.7994 11.7579 15.0048 12.0588 15.2097C12.3875 15.4335 12.7152 15.6567 13.1393 15.9347C13.2474 16.0056 13.3506 16.0791 13.4511 16.1508C13.8335 16.4234 14.1771 16.6684 14.6016 16.6293C14.8483 16.6066 15.1031 16.3747 15.2325 15.683C15.5383 14.0482 16.1394 10.5061 16.2783 9.04653C16.2904 8.91865 16.2751 8.75499 16.2628 8.68314C16.2505 8.6113 16.2248 8.50894 16.1315 8.43316C16.0209 8.34342 15.8501 8.3245 15.7738 8.32584C15.4266 8.33196 14.8939 8.51718 12.3304 9.58342Z" fill="#F5F8FB"/>
</svg>
